<mxfile host="app.diagrams.net" agent="Mozilla/5.0 (X11; Ubuntu; Linux x86_64; rv:133.0) Gecko/20100101 Firefox/133.0" version="26.0.5">
  <diagram name="PÃ¡gina-1" id="404gtZm22GtIctjodH8I">
    <mxGraphModel dx="1434" dy="790" grid="1" gridSize="10" guides="1" tooltips="1" connect="1" arrows="1" fold="1" page="1" pageScale="1" pageWidth="827" pageHeight="1169" math="0" shadow="0">
      <root>
        <mxCell id="0" />
        <mxCell id="1" parent="0" />
        <mxCell id="WF2kSGwIQC7BofhL9CZ6-7" style="edgeStyle=orthogonalEdgeStyle;rounded=0;orthogonalLoop=1;jettySize=auto;html=1;exitX=0.5;exitY=0.045;exitDx=0;exitDy=0;exitPerimeter=0;" edge="1" parent="1" source="WF2kSGwIQC7BofhL9CZ6-1" target="WF2kSGwIQC7BofhL9CZ6-3">
          <mxGeometry relative="1" as="geometry">
            <mxPoint x="315" y="230" as="sourcePoint" />
            <mxPoint x="445" y="20" as="targetPoint" />
            <Array as="points">
              <mxPoint x="380" y="185" />
            </Array>
          </mxGeometry>
        </mxCell>
        <mxCell id="WF2kSGwIQC7BofhL9CZ6-46" style="edgeStyle=orthogonalEdgeStyle;rounded=0;orthogonalLoop=1;jettySize=auto;html=1;" edge="1" parent="1" source="WF2kSGwIQC7BofhL9CZ6-1" target="WF2kSGwIQC7BofhL9CZ6-34">
          <mxGeometry relative="1" as="geometry" />
        </mxCell>
        <mxCell id="WF2kSGwIQC7BofhL9CZ6-1" value="Amazon API Gateway" style="sketch=0;outlineConnect=0;fontColor=#232F3E;gradientColor=none;strokeColor=#ffffff;fillColor=#232F3E;dashed=0;verticalLabelPosition=middle;verticalAlign=bottom;align=center;html=1;whiteSpace=wrap;fontSize=10;fontStyle=1;spacing=3;shape=mxgraph.aws4.productIcon;prIcon=mxgraph.aws4.api_gateway;" vertex="1" parent="1">
          <mxGeometry x="340" y="295" width="80" height="110" as="geometry" />
        </mxCell>
        <mxCell id="WF2kSGwIQC7BofhL9CZ6-2" value="Amazon Cognito" style="sketch=0;outlineConnect=0;fontColor=#232F3E;gradientColor=none;strokeColor=#ffffff;fillColor=#232F3E;dashed=0;verticalLabelPosition=middle;verticalAlign=bottom;align=center;html=1;whiteSpace=wrap;fontSize=10;fontStyle=1;spacing=3;shape=mxgraph.aws4.productIcon;prIcon=mxgraph.aws4.cognito;" vertex="1" parent="1">
          <mxGeometry x="575" y="142.5" width="60" height="100" as="geometry" />
        </mxCell>
        <mxCell id="WF2kSGwIQC7BofhL9CZ6-8" value="" style="edgeStyle=orthogonalEdgeStyle;rounded=0;orthogonalLoop=1;jettySize=auto;html=1;" edge="1" parent="1" source="WF2kSGwIQC7BofhL9CZ6-3" target="WF2kSGwIQC7BofhL9CZ6-2">
          <mxGeometry relative="1" as="geometry" />
        </mxCell>
        <mxCell id="WF2kSGwIQC7BofhL9CZ6-3" value="AWS Lambda" style="sketch=0;outlineConnect=0;fontColor=#232F3E;gradientColor=none;strokeColor=#ffffff;fillColor=#232F3E;dashed=0;verticalLabelPosition=middle;verticalAlign=bottom;align=center;html=1;whiteSpace=wrap;fontSize=10;fontStyle=1;spacing=3;shape=mxgraph.aws4.productIcon;prIcon=mxgraph.aws4.lambda;" vertex="1" parent="1">
          <mxGeometry x="470" y="150" width="50" height="85" as="geometry" />
        </mxCell>
        <mxCell id="WF2kSGwIQC7BofhL9CZ6-6" style="edgeStyle=orthogonalEdgeStyle;rounded=0;orthogonalLoop=1;jettySize=auto;html=1;" edge="1" parent="1" source="WF2kSGwIQC7BofhL9CZ6-5" target="WF2kSGwIQC7BofhL9CZ6-1">
          <mxGeometry relative="1" as="geometry" />
        </mxCell>
        <mxCell id="WF2kSGwIQC7BofhL9CZ6-5" value="Client HTTP" style="rounded=1;whiteSpace=wrap;html=1;" vertex="1" parent="1">
          <mxGeometry x="70" y="320" width="120" height="60" as="geometry" />
        </mxCell>
        <mxCell id="WF2kSGwIQC7BofhL9CZ6-9" value="" style="edgeStyle=orthogonalEdgeStyle;rounded=0;orthogonalLoop=1;jettySize=auto;html=1;" edge="1" parent="1" source="WF2kSGwIQC7BofhL9CZ6-2" target="WF2kSGwIQC7BofhL9CZ6-3">
          <mxGeometry relative="1" as="geometry">
            <mxPoint x="560" y="195" as="sourcePoint" />
            <mxPoint x="660" y="195" as="targetPoint" />
          </mxGeometry>
        </mxCell>
        <mxCell id="WF2kSGwIQC7BofhL9CZ6-17" value="" style="edgeStyle=orthogonalEdgeStyle;rounded=0;orthogonalLoop=1;jettySize=auto;html=1;" edge="1" parent="1" source="WF2kSGwIQC7BofhL9CZ6-11" target="WF2kSGwIQC7BofhL9CZ6-16">
          <mxGeometry relative="1" as="geometry" />
        </mxCell>
        <mxCell id="WF2kSGwIQC7BofhL9CZ6-11" value="AWS Lambda" style="sketch=0;outlineConnect=0;fontColor=#232F3E;gradientColor=none;strokeColor=#ffffff;fillColor=#232F3E;dashed=0;verticalLabelPosition=middle;verticalAlign=bottom;align=center;html=1;whiteSpace=wrap;fontSize=10;fontStyle=1;spacing=3;shape=mxgraph.aws4.productIcon;prIcon=mxgraph.aws4.lambda;" vertex="1" parent="1">
          <mxGeometry x="535" y="570" width="40" height="65" as="geometry" />
        </mxCell>
        <mxCell id="WF2kSGwIQC7BofhL9CZ6-13" value="AWS Step Functions workflow" style="sketch=0;outlineConnect=0;gradientColor=none;html=1;whiteSpace=wrap;fontSize=12;fontStyle=0;shape=mxgraph.aws4.group;grIcon=mxgraph.aws4.group_aws_step_functions_workflow;strokeColor=#545B64;fillColor=none;verticalAlign=top;align=left;spacingLeft=30;fontColor=#545B64;dashed=0;" vertex="1" parent="1">
          <mxGeometry x="429" y="510" width="506" height="210" as="geometry" />
        </mxCell>
        <mxCell id="WF2kSGwIQC7BofhL9CZ6-15" style="edgeStyle=orthogonalEdgeStyle;rounded=0;orthogonalLoop=1;jettySize=auto;html=1;" edge="1" parent="1" source="WF2kSGwIQC7BofhL9CZ6-14" target="WF2kSGwIQC7BofhL9CZ6-11">
          <mxGeometry relative="1" as="geometry">
            <mxPoint x="515" y="602.5" as="targetPoint" />
          </mxGeometry>
        </mxCell>
        <mxCell id="WF2kSGwIQC7BofhL9CZ6-14" value="start" style="ellipse;whiteSpace=wrap;html=1;aspect=fixed;" vertex="1" parent="1">
          <mxGeometry x="455" y="587.5" width="30" height="30" as="geometry" />
        </mxCell>
        <mxCell id="WF2kSGwIQC7BofhL9CZ6-26" value="" style="edgeStyle=orthogonalEdgeStyle;rounded=0;orthogonalLoop=1;jettySize=auto;html=1;" edge="1" parent="1" source="WF2kSGwIQC7BofhL9CZ6-16" target="WF2kSGwIQC7BofhL9CZ6-19">
          <mxGeometry relative="1" as="geometry">
            <mxPoint x="685" y="500" as="targetPoint" />
          </mxGeometry>
        </mxCell>
        <mxCell id="WF2kSGwIQC7BofhL9CZ6-16" value="AWS Lambda" style="sketch=0;outlineConnect=0;fontColor=#232F3E;gradientColor=none;strokeColor=#ffffff;fillColor=#232F3E;dashed=0;verticalLabelPosition=middle;verticalAlign=bottom;align=center;html=1;whiteSpace=wrap;fontSize=10;fontStyle=1;spacing=3;shape=mxgraph.aws4.productIcon;prIcon=mxgraph.aws4.lambda;" vertex="1" parent="1">
          <mxGeometry x="650" y="570" width="40" height="65" as="geometry" />
        </mxCell>
        <mxCell id="WF2kSGwIQC7BofhL9CZ6-19" value="Amazon S3" style="sketch=0;outlineConnect=0;fontColor=#232F3E;gradientColor=none;strokeColor=#ffffff;fillColor=#232F3E;dashed=0;verticalLabelPosition=middle;verticalAlign=bottom;align=center;html=1;whiteSpace=wrap;fontSize=10;fontStyle=1;spacing=3;shape=mxgraph.aws4.productIcon;prIcon=mxgraph.aws4.s3;" vertex="1" parent="1">
          <mxGeometry x="635" y="360" width="70" height="90" as="geometry" />
        </mxCell>
        <mxCell id="WF2kSGwIQC7BofhL9CZ6-21" value="" style="outlineConnect=0;dashed=0;verticalLabelPosition=bottom;verticalAlign=top;align=center;html=1;shape=mxgraph.aws3.dynamo_db;fillColor=#2E73B8;gradientColor=none;" vertex="1" parent="1">
          <mxGeometry x="1169" y="274.5" width="72" height="81" as="geometry" />
        </mxCell>
        <mxCell id="WF2kSGwIQC7BofhL9CZ6-22" value="" style="rounded=0;whiteSpace=wrap;html=1;fillColor=none;" vertex="1" parent="1">
          <mxGeometry x="370" y="127.5" width="290" height="130" as="geometry" />
        </mxCell>
        <mxCell id="WF2kSGwIQC7BofhL9CZ6-23" value="Auth" style="text;html=1;align=center;verticalAlign=middle;whiteSpace=wrap;rounded=0;" vertex="1" parent="1">
          <mxGeometry x="360" y="97.5" width="60" height="30" as="geometry" />
        </mxCell>
        <mxCell id="WF2kSGwIQC7BofhL9CZ6-24" value="process videos" style="text;html=1;align=center;verticalAlign=middle;whiteSpace=wrap;rounded=0;" vertex="1" parent="1">
          <mxGeometry x="525" y="638.5" width="60" height="30" as="geometry" />
        </mxCell>
        <mxCell id="WF2kSGwIQC7BofhL9CZ6-25" value="writes" style="text;html=1;align=center;verticalAlign=middle;whiteSpace=wrap;rounded=0;" vertex="1" parent="1">
          <mxGeometry x="675" y="530" width="60" height="30" as="geometry" />
        </mxCell>
        <mxCell id="WF2kSGwIQC7BofhL9CZ6-28" style="edgeStyle=orthogonalEdgeStyle;rounded=0;orthogonalLoop=1;jettySize=auto;html=1;" edge="1" parent="1" source="WF2kSGwIQC7BofhL9CZ6-27" target="WF2kSGwIQC7BofhL9CZ6-19">
          <mxGeometry relative="1" as="geometry" />
        </mxCell>
        <mxCell id="WF2kSGwIQC7BofhL9CZ6-36" style="edgeStyle=orthogonalEdgeStyle;rounded=0;orthogonalLoop=1;jettySize=auto;html=1;" edge="1" parent="1" source="WF2kSGwIQC7BofhL9CZ6-27" target="WF2kSGwIQC7BofhL9CZ6-33">
          <mxGeometry relative="1" as="geometry" />
        </mxCell>
        <mxCell id="WF2kSGwIQC7BofhL9CZ6-27" value="AWS Lambda" style="sketch=0;outlineConnect=0;fontColor=#232F3E;gradientColor=none;strokeColor=#ffffff;fillColor=#232F3E;dashed=0;verticalLabelPosition=middle;verticalAlign=bottom;align=center;html=1;whiteSpace=wrap;fontSize=10;fontStyle=1;spacing=3;shape=mxgraph.aws4.productIcon;prIcon=mxgraph.aws4.lambda;" vertex="1" parent="1">
          <mxGeometry x="790" y="300" width="50" height="65" as="geometry" />
        </mxCell>
        <mxCell id="WF2kSGwIQC7BofhL9CZ6-29" value="Cron triggered by event" style="text;html=1;align=center;verticalAlign=middle;whiteSpace=wrap;rounded=0;" vertex="1" parent="1">
          <mxGeometry x="770" y="365" width="100" height="30" as="geometry" />
        </mxCell>
        <mxCell id="WF2kSGwIQC7BofhL9CZ6-30" value="verifies if processing is done" style="text;html=1;align=center;verticalAlign=middle;whiteSpace=wrap;rounded=0;" vertex="1" parent="1">
          <mxGeometry x="690" y="300" width="60" height="30" as="geometry" />
        </mxCell>
        <mxCell id="WF2kSGwIQC7BofhL9CZ6-31" value="TBD: coordination of lambda functions for parallel processing" style="text;html=1;align=center;verticalAlign=middle;whiteSpace=wrap;rounded=0;fillColor=none;fontStyle=1" vertex="1" parent="1">
          <mxGeometry x="730" y="590" width="190" height="20" as="geometry" />
        </mxCell>
        <mxCell id="WF2kSGwIQC7BofhL9CZ6-38" value="" style="edgeStyle=orthogonalEdgeStyle;rounded=0;orthogonalLoop=1;jettySize=auto;html=1;" edge="1" parent="1" source="WF2kSGwIQC7BofhL9CZ6-33" target="WF2kSGwIQC7BofhL9CZ6-35">
          <mxGeometry relative="1" as="geometry" />
        </mxCell>
        <mxCell id="WF2kSGwIQC7BofhL9CZ6-33" value="Amazon SNS" style="sketch=0;outlineConnect=0;fontColor=#232F3E;gradientColor=none;strokeColor=#ffffff;fillColor=#232F3E;dashed=0;verticalLabelPosition=middle;verticalAlign=bottom;align=center;html=1;whiteSpace=wrap;fontSize=10;fontStyle=1;spacing=3;shape=mxgraph.aws4.productIcon;prIcon=mxgraph.aws4.sns;" vertex="1" parent="1">
          <mxGeometry x="940" y="286.75" width="50" height="91.5" as="geometry" />
        </mxCell>
        <mxCell id="WF2kSGwIQC7BofhL9CZ6-47" value="" style="edgeStyle=orthogonalEdgeStyle;rounded=0;orthogonalLoop=1;jettySize=auto;html=1;" edge="1" parent="1" source="WF2kSGwIQC7BofhL9CZ6-34" target="WF2kSGwIQC7BofhL9CZ6-14">
          <mxGeometry relative="1" as="geometry" />
        </mxCell>
        <mxCell id="WF2kSGwIQC7BofhL9CZ6-34" value="Amazon SQS" style="sketch=0;outlineConnect=0;fontColor=#232F3E;gradientColor=none;strokeColor=#ffffff;fillColor=#232F3E;dashed=0;verticalLabelPosition=middle;verticalAlign=bottom;align=center;html=1;whiteSpace=wrap;fontSize=10;fontStyle=1;spacing=3;shape=mxgraph.aws4.productIcon;prIcon=mxgraph.aws4.sqs;" vertex="1" parent="1">
          <mxGeometry x="350" y="585" width="53" height="81.5" as="geometry" />
        </mxCell>
        <mxCell id="WF2kSGwIQC7BofhL9CZ6-39" value="" style="edgeStyle=orthogonalEdgeStyle;rounded=0;orthogonalLoop=1;jettySize=auto;html=1;" edge="1" parent="1" source="WF2kSGwIQC7BofhL9CZ6-35" target="WF2kSGwIQC7BofhL9CZ6-21">
          <mxGeometry relative="1" as="geometry" />
        </mxCell>
        <mxCell id="WF2kSGwIQC7BofhL9CZ6-35" value="AWS Lambda" style="sketch=0;outlineConnect=0;fontColor=#232F3E;gradientColor=none;strokeColor=#ffffff;fillColor=#232F3E;dashed=0;verticalLabelPosition=middle;verticalAlign=bottom;align=center;html=1;whiteSpace=wrap;fontSize=10;fontStyle=1;spacing=3;shape=mxgraph.aws4.productIcon;prIcon=mxgraph.aws4.lambda;" vertex="1" parent="1">
          <mxGeometry x="1050" y="300" width="50" height="65" as="geometry" />
        </mxCell>
        <mxCell id="WF2kSGwIQC7BofhL9CZ6-37" value="notifies process state" style="text;html=1;align=center;verticalAlign=middle;whiteSpace=wrap;rounded=0;" vertex="1" parent="1">
          <mxGeometry x="935" y="250" width="60" height="30" as="geometry" />
        </mxCell>
        <mxCell id="WF2kSGwIQC7BofhL9CZ6-40" value="writes " style="text;html=1;align=center;verticalAlign=middle;whiteSpace=wrap;rounded=0;" vertex="1" parent="1">
          <mxGeometry x="1100" y="270" width="60" height="30" as="geometry" />
        </mxCell>
        <mxCell id="WF2kSGwIQC7BofhL9CZ6-41" value="&lt;b&gt;register&lt;/b&gt;: [proccessId, userId, state, videoMetadata, whoIsProcessing(lambdaId?) ]" style="text;html=1;align=center;verticalAlign=middle;whiteSpace=wrap;rounded=0;" vertex="1" parent="1">
          <mxGeometry x="1020" y="365" width="500" height="30" as="geometry" />
        </mxCell>
        <mxCell id="WF2kSGwIQC7BofhL9CZ6-42" value="&lt;b&gt;TDB: how notify user via email that process is done&lt;br&gt;&lt;/b&gt;" style="text;html=1;align=center;verticalAlign=middle;whiteSpace=wrap;rounded=0;" vertex="1" parent="1">
          <mxGeometry x="1020" y="390" width="500" height="30" as="geometry" />
        </mxCell>
        <mxCell id="WF2kSGwIQC7BofhL9CZ6-44" value="&lt;div&gt;&lt;b&gt;GET /auth?email&amp;amp;pass&lt;/b&gt;&lt;/div&gt;&lt;div&gt;&lt;b&gt;POST&lt;span style=&quot;white-space: pre;&quot;&gt;&#x9;&lt;/span&gt; userId/video&lt;br&gt;&lt;/b&gt;&lt;/div&gt;" style="text;html=1;align=center;verticalAlign=middle;whiteSpace=wrap;rounded=0;" vertex="1" parent="1">
          <mxGeometry x="17.5" y="395" width="225" height="30" as="geometry" />
        </mxCell>
      </root>
    </mxGraphModel>
  </diagram>
</mxfile>
